<svg xmlns="http://www.w3.org/2000/svg" viewBox="0 0 750 500"><g id="freepik--Character--inject-247"><path d="M207.14,302.1s13.31,3.29,15.54,30.73c1.31,16.05,2.86,32.41,2.86,32.41l29.27,6.91,5.15,16-38.34,7.54c-10.61,0-22.27-9.16-22-19.77L199.17,339Z" style="fill:#FF725E"></path><path d="M136.84,302.33l-5.94,41.22a42.24,42.24,0,0,0,1.25,17.82l7.33,25.12s-9.95,12.75-1.74,17.68c1.62,1,45.62,3,45.62,3l21.33-1.47,2.85-61.05-.4-42.52s-14.81-5.39-20.61-6a220.13,220.13,0,0,0-32.34.27Z" style="fill:#FF725E"></path><path d="M205,344.24a4.33,4.33,0,0,0-1.57-.06,5.21,5.21,0,0,1-4.84-3.23,7.83,7.83,0,0,1-1.38,2.84,2.7,2.7,0,0,1-2.84.93c-1.07-.41-1.57-1.6-2.35-2.42a4.28,4.28,0,0,0-6.78,1.51c-.4,1.19-.65,2.92-1.91,2.9-1.44,0-1.42-2.34-2.54-3.24s-2.83,0-3.81,1.13-2,2.47-3.48,2.44-2.39-1.33-2.79-2.64-.4-2.72-.88-4-1.68-2.48-3-2.27c-1.68.26-2.3,2.28-2.74,3.91s-1.66,3.57-3.3,3.15c-2.35-.6-1.4-4.76-3.47-6-1.46-.88-3.37.38-4.15,1.9s-1,3.32-1.91,4.75S148,348,147,346.7c-.37-.45-.52-1.07-.92-1.49a2.57,2.57,0,0,0-3-.12c-1,.52-1.76,1.34-2.76,1.77s-3.25,0-3.75-1l-3,5.31c-.49,1.11-1.81,2.49-1,2.95a1.51,1.51,0,0,0,2.12-.86,3.27,3.27,0,0,0,3.74-.32c.72-.68,1.4-1.81,2.35-1.55.49.13.8.6,1.14,1a3.76,3.76,0,0,0,4.87.43,20.88,20.88,0,0,0,2-2.13,2.52,2.52,0,0,1,2.61-.81c1.06.45,1.28,1.86,1.18,3s-.34,2.42.29,3.38c.83,1.26,2.75,1.28,4.07.54a17.25,17.25,0,0,0,3.29-3c1.08-1.05,2.53-2,4-1.66,1.72.35,3,2.27,4.77,2.06,1.21-.15,2.13-1.29,3.35-1.36s2.37,1.19,3.66,1.59c2.91.91,5.55-2.73,8.59-2.45,2.78.26,5,3.74,7.64,2.77,2.31-.85,2.33-4.36,4.36-5.75,1.22-.85,2.85-.7,4.33-.52s3.11.32,4.33-.53S206.45,344.74,205,344.24Z" style="fill:#fff"></path><path d="M207.28,341.82a1.66,1.66,0,0,1,2.54-2,3,3,0,0,1,.88,2.26,5.7,5.7,0,0,0,.4,2.44,1.49,1.49,0,0,0,2.08.69c.52-.41.54-1.16.61-1.82s.4-1.43,1.06-1.46,1.07.71,1.19,1.36.16,1.4.68,1.81c.73-.22.89-1.15,1.05-1.9s.87-1.6,1.53-1.23c.33.18.45.59.62.93s.53.67.88.53c.59-.22.28-1.35.87-1.58.39-.14.75.27,1,.63a4.37,4.37,0,0,1,.82,2.11,1.55,1.55,0,0,1-1.26,1.64,5.45,5.45,0,0,1-1.31-.32,2.48,2.48,0,0,0-2.41,1.22,7.17,7.17,0,0,0-.88,2.69,3,3,0,0,0-4.28.29c-.84,1.1-1.06,2.93-2.42,3.21a2,2,0,0,1-2.07-1.42,5.77,5.77,0,0,1,0-2.71L207,350.72l-.42-2.44" style="fill:#fff"></path><g style="opacity:0.30000000000000004"><path d="M134.54,399.14l23.51-7.26L173,390.51s4.27,7.45,8.07,7.1a16,16,0,0,0,6.39-2s1.44,7.84,5.24,7.26,1.85-24,1.85-24l-39.66-8L131.36,377Z"></path></g><path d="M136.84,302.33S124.6,306.62,120,313.51c-6.07,9.13-23.22,35.37-31.26,55.91-2.52,6.43-.42,16.31,3.3,22.12h0a20.89,20.89,0,0,0,23.34,8.81l42.89-12.1,4-24.11-37.36,1.56,10.47-17.17Z" style="fill:#FF725E"></path><path d="M103.42,340.43a2.38,2.38,0,0,1,3.73.17c.66,1,.66,2.78,1.87,3,.88.17,1.58-.68,2.17-1.37s1.65-1.31,2.31-.69.29,1.8,1,2.26,1.45-.23,1.89-.86,1-1.4,1.72-1.33c1.56.14,1.23,3.36,2.8,3.39.8,0,1.28-.91,2-1.21,1-.4,2,.34,2.77,1a5.21,5.21,0,0,1,1.33,1.52,1.75,1.75,0,0,1-.15,1.92c-.69.75-1.93.44-2.82-.06s-1.85-1.14-2.84-.89c-1.67.42-2.28,3.17-4,3-1.56-.18-2-2.72-3.54-2.89s-2.81,2.43-4.32,1.81c-.7-.28-1-1.16-1.64-1.55a2.26,2.26,0,0,0-2.08.11,14.51,14.51,0,0,1-1.93,1,1.75,1.75,0,0,1-2-.47c-.41-.6.08-1.65.79-1.49l-1.71-.28,0-1.36" style="fill:#fff"></path><path d="M207,326.21a12.86,12.86,0,0,1,.13,1.92c0,1.24.08,3,.09,5.25,0,4.44-.05,10.56-.36,17.32S206,363.58,205.59,368c-.22,2.2-.42,4-.58,5.22.39,17.3-.26,1.9-.3,1.9a12.74,12.74,0,0,1,.07-1.93c.1-1.33.23-3.1.39-5.23.33-4.42.75-10.52,1.06-17.27s.46-12.87.53-17.3c0-2.14.07-3.91.1-5.25A11.21,11.21,0,0,1,207,326.21Z" style="fill:#263238"></path><path d="M209.37,303.42c.15.11-1.55,2.33-2.73,5.51s-1.41,6-1.6,5.95a13.21,13.21,0,0,1,1.05-6.16A13.07,13.07,0,0,1,209.37,303.42Z" style="fill:#263238"></path><path d="M141.38,324.75c-.09,0-.18-1.11-.59-2.85a23.5,23.5,0,0,0-2.61-6.42,23.83,23.83,0,0,0-4.39-5.36c-1.33-1.19-2.27-1.8-2.22-1.88a2.4,2.4,0,0,1,.71.36,13.55,13.55,0,0,1,1.75,1.25,20.66,20.66,0,0,1,7.12,12,16.22,16.22,0,0,1,.26,2.13A2.41,2.41,0,0,1,141.38,324.75Z" style="fill:#263238"></path><path d="M124.42,365.91a52,52,0,0,0-6.83,2.82,53.26,53.26,0,0,0-6.07,4.21,7.39,7.39,0,0,1,1.49-1.61,23.39,23.39,0,0,1,4.34-3.06,22.52,22.52,0,0,1,4.91-2A6.41,6.41,0,0,1,124.42,365.91Z" style="fill:#263238"></path><path d="M142.21,334.2a7.13,7.13,0,0,1-.54,1.3c-.37.83-.94,2-1.66,3.45-1.44,2.89-3.51,6.85-5.93,11.14s-4.74,8.12-6.47,10.84c-.87,1.37-1.59,2.46-2.1,3.21a7.14,7.14,0,0,1-.83,1.13,7.63,7.63,0,0,1,.66-1.24l2-3.29c1.65-2.77,3.92-6.61,6.34-10.9s4.53-8.21,6.05-11.06c.73-1.35,1.34-2.48,1.81-3.37A7.85,7.85,0,0,1,142.21,334.2Z" style="fill:#263238"></path><path d="M111.52,401.07l.23-.09.69-.21,2.65-.78,9.86-2.78L158.2,388l-.18.21c.37-2.3.77-4.72,1.17-7.18,1-5.95,1.94-11.67,2.81-16.93l.23.29a246.86,246.86,0,0,0-27.65,1l-8,.67-2.13.17-.55,0h-.19l.19,0,.54-.08,2.13-.24c1.85-.21,4.55-.49,8-.82a229.59,229.59,0,0,1,27.7-1.2h.28l-.05.28c-.86,5.26-1.8,11-2.77,16.93-.41,2.46-.81,4.88-1.19,7.18l0,.17-.16,0-33.3,9-9.9,2.64-2.68.68-.69.17A1.07,1.07,0,0,1,111.52,401.07Z" style="fill:#263238"></path><path d="M181.78,443.73s43.57,12.06,45.32,12.68c2.62.92,2.18,10.54-1.9,10.39-1.93-.07-33.47,1.17-37.46.92s-16-5-16-5Z" style="fill:#FF725E"></path><path d="M199.93,460.36c.22,0,.51-2.28,1.92-4.68s3.22-3.84,3.08-4-2.24,1.06-3.71,3.65S199.75,460.38,199.93,460.36Z" style="fill:#263238"></path><path d="M195.39,458.3c.21,0,.65-2,1.81-4.3s2.53-3.87,2.37-4-1.82,1.28-3,3.69S195.2,458.29,195.39,458.3Z" style="fill:#263238"></path><path d="M191.12,457.16c.22,0,.06-2.19,1-4.61s2.53-3.91,2.38-4.07-2,1.18-3.06,3.81S191,457.22,191.12,457.16Z" style="fill:#263238"></path><path d="M191.9,451.53a7.78,7.78,0,0,0,.47-3.24,15.31,15.31,0,0,0-.45-3.56,16.14,16.14,0,0,0-.64-2,2.67,2.67,0,0,0-.7-1.07,1.16,1.16,0,0,0-1.5.08,2,2,0,0,0-.58,1.23,9,9,0,0,0-.06,1.15,9.62,9.62,0,0,0,.27,2.13,13.26,13.26,0,0,0,1.34,3.34,9,9,0,0,0,2,2.62c.1-.07-.63-1.09-1.5-2.86a14.36,14.36,0,0,1-1.14-3.24,9.2,9.2,0,0,1-.21-2c0-.67,0-1.51.4-1.83a.42.42,0,0,1,.58,0,1.87,1.87,0,0,1,.47.76,16.21,16.21,0,0,1,.66,1.92,17.25,17.25,0,0,1,.58,3.41C192,450.28,191.78,451.51,191.9,451.53Z" style="fill:#263238"></path><path d="M191.84,451.09a6.15,6.15,0,0,0-2.81-.46,12.66,12.66,0,0,0-3.09.38,6.71,6.71,0,0,0-1.78.66,1.82,1.82,0,0,0-1,2,2.14,2.14,0,0,0,1.57,1.55,3.9,3.9,0,0,0,1.95,0,7.49,7.49,0,0,0,2.83-1.39,7.75,7.75,0,0,0,2-2,20.44,20.44,0,0,0-2.32,1.57,7.76,7.76,0,0,1-2.68,1.16,3.5,3.5,0,0,1-1.61,0,1.47,1.47,0,0,1-1.06-1,1.12,1.12,0,0,1,.64-1.21,6.65,6.65,0,0,1,1.59-.62,14.11,14.11,0,0,1,2.93-.51C190.76,451,191.83,451.2,191.84,451.09Z" style="fill:#263238"></path><path d="M206.62,460.83c.22,0,0-1.89.86-3.93s2.27-3.25,2.14-3.42-1.9.86-2.81,3.14S206.45,460.9,206.62,460.83Z" style="fill:#263238"></path><path d="M176.22,462.84a10,10,0,0,0,1.69.79,36.3,36.3,0,0,0,4.85,1.5,69,69,0,0,0,16.63,1.58c6.53-.07,12.41-.37,16.68-.54l5.05-.27a9.11,9.11,0,0,0,1.85-.2,9.71,9.71,0,0,0-1.86-.08l-5.05,0-16.67.33a77.8,77.8,0,0,1-16.52-1.35C178.7,463.77,176.27,462.7,176.22,462.84Z" style="fill:#263238"></path><path d="M174.93,463.83c.06.1,1.25-.6,3.27-1.48a15.16,15.16,0,0,1,8.24-1.37c3.29.5,5.61,2.71,7.13,4.24a26.25,26.25,0,0,0,2.51,2.57,13.19,13.19,0,0,0-2.13-2.92,17.44,17.44,0,0,0-2.89-2.7,10.37,10.37,0,0,0-4.5-1.91,14.45,14.45,0,0,0-8.58,1.62A11.91,11.91,0,0,0,174.93,463.83Z" style="fill:#263238"></path><g style="opacity:0.30000000000000004"><path d="M181.78,443.73s43.57,12.06,45.32,12.68c2.62.92,2.18,10.54-1.9,10.39-1.93-.07-33.47,1.17-37.46.92s-16-5-16-5Z"></path></g><path d="M137.74,404.17l-8.83,18.15S81.68,408,69.78,408.62s-21.64,5.43-24,15.09-2.63,23,11.25,32.26S140,470.33,140,470.33h27.3l44.63-58.83-7.19-5.83Z" style="fill:#263238"></path><path d="M152.6,444a5.59,5.59,0,0,1-.9,0c-.59-.05-1.46,0-2.56-.2a52.64,52.64,0,0,1-9.26-1.91,89,89,0,0,1-13-5.1c-4.78-2.25-9.87-5-15.22-7.9a159,159,0,0,0-15.42-7.4,69.09,69.09,0,0,0-13.34-4,46.55,46.55,0,0,0-9.35-.82c-1.11,0-2,.09-2.55.1a4.72,4.72,0,0,1-.9,0,5.71,5.71,0,0,1,.89-.13c.58,0,1.44-.2,2.56-.21a44.11,44.11,0,0,1,9.43.63A66.57,66.57,0,0,1,96.39,421a149.86,149.86,0,0,1,15.5,7.38c5.35,2.87,10.43,5.65,15.17,7.92a92.56,92.56,0,0,0,12.94,5.2,58.28,58.28,0,0,0,9.17,2.08c1.09.19,2,.23,2.54.31A5.1,5.1,0,0,1,152.6,444Z" style="fill:#455a64"></path><path d="M184.87,465.53c8.77-3.44,57-18.79,74.08-38.53,14.22-16.43-8.4-31.14-8.4-31.14s-15.86-.5-21.15,0-81,51.67-81,51.67,13.22,25.78,12.89,26.77Z" style="fill:#263238"></path><path d="M208.62,408.32s-.06.06-.2.16l-.64.43-2.47,1.62-9.17,5.83L165.8,435.44l-16.49,10.28.11-.34,8.64,20.79c1,2.52,1.85,4.54,2.43,6l.63,1.6a2.49,2.49,0,0,1,.18.56,3.46,3.46,0,0,1-.27-.53c-.18-.39-.41-.91-.7-1.56l-2.58-5.91c-2.18-5.12-5.25-12.3-8.84-20.71l-.09-.21.2-.13,16.46-10.32L195.92,416l9.26-5.68,2.54-1.52.67-.38Z" style="fill:#455a64"></path><path d="M142,431.07a7.74,7.74,0,0,1-2.24-.84,30.45,30.45,0,0,1-4.95-3,31.12,31.12,0,0,1-4.33-3.82,7.57,7.57,0,0,1-1.48-1.89c.14-.12,2.55,2.61,6.16,5.23S142.05,430.9,142,431.07Z" style="fill:#455a64"></path><path d="M168.24,409.68a18.07,18.07,0,0,1,.12,3c0,1.86.1,4.43.35,7.25s.65,5.37,1,7.2a18.9,18.9,0,0,1,.43,3,12.32,12.32,0,0,1-.84-2.91,55.37,55.37,0,0,1-1.14-7.22,57.75,57.75,0,0,1-.18-7.31A13.89,13.89,0,0,1,168.24,409.68Z" style="fill:#455a64"></path><path d="M173.89,409.06s.22-.06.59.08a2.63,2.63,0,0,1,1.25,1.05,2.86,2.86,0,0,1,.36,2.43,2.64,2.64,0,0,1-2.45,1.73,2.56,2.56,0,0,1-2.58-1.51,2.71,2.71,0,0,1,.33-2.44,2.37,2.37,0,0,1,1.32-1c.39-.09.61,0,.61,0a2.8,2.8,0,0,0-1.57,1.21,2.3,2.3,0,0,0-.19,2,2.07,2.07,0,0,0,2.06,1.13,2.12,2.12,0,0,0,2-1.32,2.55,2.55,0,0,0-.21-2A3.58,3.58,0,0,0,173.89,409.06Z" style="fill:#455a64"></path><path d="M150.55,407.15a2.48,2.48,0,0,1,.41.89,8.34,8.34,0,0,1,.4,2.67,9.63,9.63,0,0,1-.88,3.92,8.81,8.81,0,0,1-7.84,5.28,9.47,9.47,0,0,1-4-.67,8,8,0,0,1-2.32-1.37,2.86,2.86,0,0,1-.68-.72,14.92,14.92,0,0,0,3.14,1.7,9.81,9.81,0,0,0,3.79.51,8.51,8.51,0,0,0,7.38-5,9.83,9.83,0,0,0,.95-3.7A14.23,14.23,0,0,0,150.55,407.15Z" style="fill:#455a64"></path><path d="M195.56,416.13a3,3,0,0,1-1.79-.25,6.79,6.79,0,0,1-4.53-6.93,3.21,3.21,0,0,1,.49-1.74,16.88,16.88,0,0,1-.07,1.75,7.13,7.13,0,0,0,4.26,6.53C194.9,415.94,195.57,416,195.56,416.13Z" style="fill:#455a64"></path><path d="M255.07,373.34s10.4-7.73,12.21-8.06,15.63,1.41,16.46,2.24,13.66,10.5,11.18,11.33-11.35-6.05-11.35-6.05l-1.66,0s7.78,5.73,9,7.69c1.15,1.79-.45,3.51-1.92,2.55s-8.1-6.19-8.69-6.12,7,6.13,7.61,7.14c.85,1.35-.15,3.59-1.64,2.69-.88-.54-7.78-6.71-7.78-6.71s5.06,5.7,5.36,6.55c.48,1.4-1,2.38-2.2,1.37-.83-.69-4.19-5.12-5.31-6.05,0,0-1.34-.29-3.64,1.54s-13.09,3.89-13.09,3.89Z" style="fill:#ffbe9d"></path><path d="M258.21,375.14a3.17,3.17,0,0,0,3.27,1.69c1.32-.09,2.57-.61,3.87-.79,3.9-.54,7.78,2.07,11.65,1.34.54-.1,1.18-.39,1.19-.94s-.51-.84-1-1.06l-11.73-5.71" style="fill:#ffbe9d"></path><path d="M265.49,369.67a5.26,5.26,0,0,1,1.33.48c.84.36,2,.9,3.51,1.58l5.17,2.43,1.49.71c.45.26,1.16.4,1.52,1.23a1.13,1.13,0,0,1-.37,1.18,2.37,2.37,0,0,1-1,.45,8.83,8.83,0,0,1-1.92.14c-2.59-.11-4.82-1-6.89-1.38a9.9,9.9,0,0,0-2.94-.15c-.91.11-1.76.38-2.57.54a4.58,4.58,0,0,1-3.85-.53c-.78-.61-.82-1.22-.79-1.21s.21.5,1,1a4.46,4.46,0,0,0,3.57.26c.78-.19,1.62-.49,2.61-.64a10,10,0,0,1,3.13.08c2.17.33,4.41,1.22,6.8,1.32A7.63,7.63,0,0,0,277,377c.53-.1.92-.42.8-.68s-.63-.57-1.13-.81l-1.48-.74-5.1-2.57c-1.44-.74-2.61-1.35-3.41-1.79A5.53,5.53,0,0,1,265.49,369.67Z" style="fill:#eb996e"></path><path d="M294.87,378.87a7.22,7.22,0,0,1-2.93-.61,18,18,0,0,1-3-1.38c-1-.68-2.1-1.45-3.25-2.26l-2.42-1.74.16.07c-4.11-.56-7.07-1.07-7.05-1.24s3,.07,7.14.53h.09l.08.06,2.42,1.7,3.19,2.28a19.83,19.83,0,0,0,2.8,1.48C293.8,378.48,294.9,378.76,294.87,378.87Z" style="fill:#eb996e"></path><path d="M151.06,451s-43.57,12.06-45.32,12.67c-2.63.93-2.18,10.54,1.9,10.39,1.93-.07,33.47,1.18,37.45.93s14.71-4.49,14.71-4.49Z" style="fill:#FF725E"></path><path d="M132.91,467.62c-.22,0-.51-2.27-1.92-4.68s-3.22-3.83-3.08-4,2.24,1.06,3.71,3.65S133.09,467.64,132.91,467.62Z" style="fill:#263238"></path><path d="M137.45,465.56c-.21,0-.65-2-1.81-4.3s-2.53-3.87-2.38-4,1.83,1.29,3,3.69S137.64,465.55,137.45,465.56Z" style="fill:#263238"></path><path d="M141.71,464.42c-.22,0-.05-2.19-1-4.6s-2.52-3.92-2.37-4.08,2,1.18,3.05,3.81S141.89,464.48,141.71,464.42Z" style="fill:#263238"></path><path d="M140.94,458.79a7.73,7.73,0,0,1-.47-3.24,15.66,15.66,0,0,1,.44-3.55,15.85,15.85,0,0,1,.65-2,2.39,2.39,0,0,1,.7-1.06,1.16,1.16,0,0,1,1.5.07,2,2,0,0,1,.58,1.23,9.08,9.08,0,0,1,0,1.15,9.8,9.8,0,0,1-.26,2.14,13.32,13.32,0,0,1-1.35,3.33,8.68,8.68,0,0,1-1.95,2.62c-.1-.07.63-1.08,1.5-2.86a14.36,14.36,0,0,0,1.14-3.24,9.87,9.87,0,0,0,.21-2c0-.67,0-1.51-.4-1.83a.44.44,0,0,0-.58,0,2,2,0,0,0-.48.76,15.74,15.74,0,0,0-.66,1.93,17.71,17.71,0,0,0-.57,3.4C140.86,457.54,141.06,458.77,140.94,458.79Z" style="fill:#263238"></path><path d="M141,458.35a6.12,6.12,0,0,1,2.81-.45,12.62,12.62,0,0,1,3.1.37,7.08,7.08,0,0,1,1.78.66,1.84,1.84,0,0,1,1,2,2.19,2.19,0,0,1-1.57,1.56,4,4,0,0,1-2,0,7.34,7.34,0,0,1-2.83-1.39,7.83,7.83,0,0,1-2-2,17.53,17.53,0,0,1,2.32,1.57,7.78,7.78,0,0,0,2.67,1.15,3.29,3.29,0,0,0,1.62,0,1.47,1.47,0,0,0,1.06-1,1.12,1.12,0,0,0-.65-1.22,6.42,6.42,0,0,0-1.58-.62,14.81,14.81,0,0,0-2.93-.51C142.08,458.29,141,458.47,141,458.35Z" style="fill:#263238"></path><path d="M126.21,468.09c-.21,0,0-1.89-.86-3.93s-2.27-3.24-2.13-3.41,1.9.85,2.81,3.13S126.39,468.17,126.21,468.09Z" style="fill:#263238"></path><path d="M156.62,470.1a8.35,8.35,0,0,1-1.69.79,36.55,36.55,0,0,1-4.85,1.51A69.12,69.12,0,0,1,133.45,474c-6.53-.07-12.42-.37-16.68-.54l-5-.27a8.78,8.78,0,0,1-1.85-.19,9.09,9.09,0,0,1,1.86-.09l5,0,16.67.32A77.8,77.8,0,0,0,150,471.89C154.13,471,156.57,470,156.62,470.1Z" style="fill:#263238"></path><path d="M157.91,471.09a34.76,34.76,0,0,1-3.27-1.48,15.25,15.25,0,0,0-8.24-1.37c-3.29.51-5.61,2.71-7.13,4.24a26.25,26.25,0,0,1-2.51,2.57,13.46,13.46,0,0,1,2.13-2.92,17.87,17.87,0,0,1,2.89-2.7,10.37,10.37,0,0,1,4.5-1.91,14.46,14.46,0,0,1,8.58,1.63A11.75,11.75,0,0,1,157.91,471.09Z" style="fill:#263238"></path><path d="M114.19,473c-.07-.06.3-.63.64-1.65a8,8,0,0,0-1.44-7.81c-.68-.82-1.24-1.23-1.18-1.31a3.42,3.42,0,0,1,1.49,1,7.54,7.54,0,0,1,2,3.89,7.46,7.46,0,0,1-.51,4.35C114.75,472.52,114.25,473,114.19,473Z" style="fill:#263238"></path><path d="M196.17,376.39c-3.66-1.12-2-5.17-8.74-7.41-5-1.67-10.4-4.79-25.19-3.11l-3.36,20.4,14.21-3.78,4.1,9.16a3.67,3.67,0,0,0,4.94,1.81l7.21-3.45s2,9.91,2.64,10.3a2.12,2.12,0,0,0,3.25-2c-.28-1.33-1-18.54-1-18.54s5.46,1.55,5.12-.63C199.31,379.18,199.83,377.51,196.17,376.39Z" style="fill:#ffbe9d"></path><path d="M180.82,394.34a11.51,11.51,0,0,1,.47-1.12,6.48,6.48,0,0,0,.36-2.84,6.38,6.38,0,0,0-.92-2.7c-.39-.63-.73-1-.68-1a2.46,2.46,0,0,1,.91.85,5.77,5.77,0,0,1,1.07,2.83,5.59,5.59,0,0,1-.49,3C181.2,394,180.85,394.37,180.82,394.34Z" style="fill:#eb996e"></path><path d="M185.34,391.88a8.23,8.23,0,0,0-1.24-6.63s.35.22.74.76a6.14,6.14,0,0,1,1,2.35,6.23,6.23,0,0,1-.06,2.55A2.3,2.3,0,0,1,185.34,391.88Z" style="fill:#eb996e"></path><path d="M188.51,384s.27.23.51.72a5.25,5.25,0,0,1,.14,4.16c-.21.51-.42.77-.46.75a12,12,0,0,0,.43-2.83A11.37,11.37,0,0,0,188.51,384Z" style="fill:#eb996e"></path><path d="M235.62,405.82,162.25,404a1.4,1.4,0,0,1-1.37-1.4h0a1.4,1.4,0,0,1,1.39-1.41l40.47-.51,16-49.54a3.93,3.93,0,0,1,3.86-2.73L284,350.11a4,4,0,0,1,3.58,5.34l-19.3,51.19-32.67-.82" style="fill:#455a64"></path><path d="M251.64,376.11c-.72-1.33-3.76-1.77-5.22-.67a4.07,4.07,0,0,0-1.91,2.45,3.49,3.49,0,0,0,2.12,4.08,4.18,4.18,0,0,0,4.32-1.63A4,4,0,0,0,251.64,376.11Z" style="fill:#fff"></path><path d="M192.27,226.19c.78-1.06,2.52-.09,3.08,1.11s.82,2.72,2,3.29c1.56.75,3.95-.6,4.92.84.74,1.1-.35,2.6,0,3.89.56,2.31,4.54,1.75,5.67,3.84.68,1.25,0,2.75-.56,4.06s-.74,3.13.46,3.87,3-.11,4,.85c1.32,1.3-.66,3.51-.25,5.31.3,1.33,1.78,2,3.11,2.27s2.81.5,3.69,1.54c1.94,2.29-.9,5.82-.11,8.72.48,1.75,2.3,3.23,1.87,5-.54,2.25-4.21,2.56-4.73,4.82-.45,1.92,1.74,4.12.53,5.68s-3.79.1-5.46,1c-1.92,1.09-1.56,4.69-3.71,5.22-1,.23-2-.34-2.94-.2-2.37.35-3,4.45-5.4,4.29-1.4-.09-2.5-1.75-3.86-1.41s-1.54,2.24-2.69,3c-1.8,1.15-3.89-1.24-6-1.33-1.33-.06-2.62.8-3.93.56a3.35,3.35,0,0,1-2.39-2.7,11.85,11.85,0,0,1,.09-3.8,37.52,37.52,0,0,0-3.49-20.41" style="fill:#263238"></path><path d="M185.49,301l-.2-10.95s10.88-1.61,13.38-15.73c1.24-7,1.11-18.57.67-28-.49-10.43-11.8-21.38-20.27-20.64l-25.13,9v4.57l.76,62.26a15.39,15.39,0,0,0,15.39,15.21h0A15.4,15.4,0,0,0,185.49,301Z" style="fill:#ffbe9d"></path><path d="M195,256.13a1.81,1.81,0,0,1-1.78,1.8,1.75,1.75,0,0,1-1.85-1.67,1.82,1.82,0,0,1,1.78-1.8A1.74,1.74,0,0,1,195,256.13Z" style="fill:#263238"></path><path d="M196.73,252.28c-.23.23-1.59-.81-3.54-.84s-3.41.92-3.61.68.13-.53.76-1a5,5,0,0,1,2.9-.83,4.77,4.77,0,0,1,2.81,1C196.64,251.74,196.84,252.17,196.73,252.28Z" style="fill:#263238"></path><path d="M177,255.62a1.81,1.81,0,0,1-1.78,1.8,1.73,1.73,0,0,1-1.84-1.67,1.81,1.81,0,0,1,1.78-1.8A1.73,1.73,0,0,1,177,255.62Z" style="fill:#263238"></path><path d="M177.52,252.3c-.23.23-1.59-.81-3.54-.84s-3.41.92-3.61.68.13-.53.76-1a5,5,0,0,1,2.9-.84,4.84,4.84,0,0,1,2.81,1C177.43,251.77,177.63,252.2,177.52,252.3Z" style="fill:#263238"></path><path d="M184.35,266.92a12.44,12.44,0,0,1,3.18-.52c.5,0,1-.13,1.07-.47a2.61,2.61,0,0,0-.31-1.49c-.45-1.21-.91-2.49-1.41-3.82-1.95-5.45-3.35-9.92-3.13-10s2,4.28,3.93,9.72l1.35,3.85a2.92,2.92,0,0,1,.22,2,1.26,1.26,0,0,1-.83.72,3.53,3.53,0,0,1-.85.1A13,13,0,0,1,184.35,266.92Z" style="fill:#263238"></path><path d="M185.29,290.06a36.06,36.06,0,0,1-18.87-5.4s4.74,9.89,18.93,8.82Z" style="fill:#eb996e"></path><path d="M183.44,271.61a3.53,3.53,0,0,0-3.13-1.36,3.2,3.2,0,0,0-2.24,1.15,2,2,0,0,0-.2,2.32,2.38,2.38,0,0,0,2.55.7,7.33,7.33,0,0,0,2.52-1.45,2.06,2.06,0,0,0,.57-.57.63.63,0,0,0,0-.72" style="fill:#FF725E"></path><path d="M178.58,268.17c.32,0,.28,2.1,2.07,3.64s4,1.34,4.06,1.64c0,.14-.51.4-1.46.41a5.28,5.28,0,0,1-3.4-1.25,4.6,4.6,0,0,1-1.6-3.05C178.19,268.67,178.43,268.15,178.58,268.17Z" style="fill:#263238"></path><path d="M178.16,244.65c-.2.53-2.15.25-4.45.48s-4.16.83-4.45.35c-.14-.23.2-.73,1-1.23a7.79,7.79,0,0,1,6.78-.62C177.83,244,178.25,244.4,178.16,244.65Z" style="fill:#263238"></path><path d="M196.11,246.61c-.35.44-1.69-.05-3.31-.1s-3,.25-3.3-.22c-.13-.23.09-.67.7-1.08a4.78,4.78,0,0,1,5.32.26C196.09,245.94,196.27,246.4,196.11,246.61Z" style="fill:#263238"></path><path d="M191.61,228.37c0,.16-.48.3-1.08.3s-1.09-.14-1.09-.3.48-.3,1.09-.3S191.61,228.21,191.61,228.37Z" style="fill:#263238"></path><path d="M190.69,231.1c3.65-7.24-4.65-13.3-8.6-15.28a13.56,13.56,0,0,0-12.73.14c-1.74,1-3.26,2.53-5.21,3-4.52,1.15-9.39-3.48-13.59-1.46-3.46,1.65-4,6.83-7.51,8.45-1.67.79-3.62.54-5.45.73s-3.91,1.2-4.14,3c-.27,2,1.88,4.18.8,5.93-1.33,2.15-5.28.15-7,2s.28,5.27-1.66,6.61c-1.43,1-3.83-.2-4.88,1.17s1,3.31,1.18,5.15-1.56,3.33-3.08,4.48-3.11,3-2.38,4.72c.85,2,4.17,2.2,4.74,4.32s-2.34,4.58-1,6.42c.88,1.22,2.9.87,4,1.88,1.86,1.67-.4,4.89.52,7.22,1.26,3.22,6.78,1.81,8.9,4.54,1.17,1.52,1,4,2.67,5s3.84-.55,5.8-.32c3.19.37,5.16,5.22,8.23,4.27,1.57-.48,2.73-2.46,4.33-2.07,1.38.34,1.92,2.31,3.32,2.53,1.9.3,2.43-2.47,3.56-4,1.52-2.07,4.83-2.18,6.23-4.32,1.26-1.93.35-4.5-.76-6.52s-2.43-4.23-1.89-6.47c.62-2.55,3.55-4.76,2.52-7.17-1.12-2.63-6.05-2.36-6.39-5.21-.33-2.69,4.18-4.21,3.67-6.87-.34-1.79-2.79-2.49-3.25-4.25-.54-2,1.94-3.79,1.91-5.91,0-1.35-1.05-2.43-1.79-3.57s-1.14-2.83-.11-3.7c1.65-1.4,4.12,1.15,6.18.53,1.45-.43,2-2.14,2.48-3.56,0,0,3.82-5.79,10.65-5S190.69,231.1,190.69,231.1Z" style="fill:#263238"></path><path d="M190.79,228.49a3,3,0,0,1-1.1,4.76c-1.7.6-3.5-.47-5-1.47s-3.37-2-5-1.3c-3,1.3-2.18,6.81-5.27,8-1.27.49-2.67,0-4-.29s-3-.24-3.72.9c-1,1.53.35,4-1,5.22-.55.52-1.42.62-1.92,1.19-.81.91-.17,2.39.72,3.23s2.06,1.49,2.5,2.63c.7,1.82-.83,3.71-2.39,4.89s-3.43,2.35-3.77,4.28c-.54,3.09,3.3,6.08,2,8.94a3.69,3.69,0,0,1-4.58,1.55,7.56,7.56,0,0,1-3.71-3.65C151,261,152,253.22,153.18,246.05c.77-4.7,1.67-9.56,4.42-13.45s7.39-6.57,12.06-8.2a24.64,24.64,0,0,1,11.12-1.59,13.06,13.06,0,0,1,9.47,5.52" style="fill:#263238"></path><path d="M150.13,292.69a.67.67,0,0,1-.25.15,1,1,0,0,1-.84-.09,2,2,0,0,1-.87-1.06,1.77,1.77,0,0,1-.1-.9,2.29,2.29,0,0,1,.42-.93,5.57,5.57,0,0,1,1.82-1.49,7.29,7.29,0,0,0,2.14-1.63,2.2,2.2,0,0,0,.52-1.32,2.24,2.24,0,0,0-.55-1.39,12.64,12.64,0,0,0-1.22-1.2,4.65,4.65,0,0,1-1.18-1.46,2.05,2.05,0,0,1,.17-2,4.88,4.88,0,0,1,1.61-1.32c.59-.34,1.22-.64,1.78-1a2.59,2.59,0,0,0,1.19-1.54,2,2,0,0,0-.66-1.83,20,20,0,0,0-1.73-1.49,5.53,5.53,0,0,1-1.6-1.87,2.92,2.92,0,0,1,.15-2.56,6.6,6.6,0,0,1,1.69-2c.67-.56,1.39-1,2-1.57a4.93,4.93,0,0,0,1.49-1.95,2.73,2.73,0,0,0-.31-2.35,13.78,13.78,0,0,0-1.67-2.07,5.72,5.72,0,0,1-1.5-2.43,2.9,2.9,0,0,1,.11-1.52,3.44,3.44,0,0,1,.87-1.24,15.19,15.19,0,0,1,2.41-1.59,4.65,4.65,0,0,0,2-1.79,2.57,2.57,0,0,0-.22-2.44,15.18,15.18,0,0,0-1.65-2.15,5.83,5.83,0,0,1-1.3-2.5,2.7,2.7,0,0,1,.11-1.46,2.51,2.51,0,0,1,.94-1.12,5.69,5.69,0,0,1,2.64-.63,10.87,10.87,0,0,0,2.48-.3,2.22,2.22,0,0,0,1.59-1.49c.23-.74.21-1.57.42-2.39a3,3,0,0,1,1.54-2c1.5-.8,3.15-.57,4.57-.53a7.11,7.11,0,0,0,2.08-.21,5.22,5.22,0,0,0,1.76-.93,27.34,27.34,0,0,0,2.72-2.78,8.31,8.31,0,0,1,2.88-2.17,6.65,6.65,0,0,1,3.18-.46,6.2,6.2,0,0,1,4.4,2.45,6.39,6.39,0,0,1,1.26,3,4.4,4.4,0,0,1,0,1.13s0-.39-.14-1.11a6.51,6.51,0,0,0-1.32-2.86,6,6,0,0,0-4.26-2.28,6.43,6.43,0,0,0-3,.48,8.06,8.06,0,0,0-2.73,2.11,27.83,27.83,0,0,1-2.74,2.84,5.48,5.48,0,0,1-1.89,1,7.5,7.5,0,0,1-2.21.24c-1.46,0-3-.22-4.35.5a2.49,2.49,0,0,0-1.29,1.68c-.19.74-.17,1.57-.43,2.41a2.66,2.66,0,0,1-1.89,1.81,11,11,0,0,1-2.59.34,5.44,5.44,0,0,0-2.41.55,2,2,0,0,0-.73.89,2,2,0,0,0-.09,1.18,5.55,5.55,0,0,0,1.2,2.27,14.93,14.93,0,0,1,1.7,2.22,4.09,4.09,0,0,1,.49,1.4,2.8,2.8,0,0,1-.25,1.51,5.09,5.09,0,0,1-2.15,2A15,15,0,0,0,154,253a2.77,2.77,0,0,0-.74,1,2.45,2.45,0,0,0-.1,1.23,5.45,5.45,0,0,0,1.38,2.2,14.54,14.54,0,0,1,1.73,2.15,3.23,3.23,0,0,1,.35,2.77,5.42,5.42,0,0,1-1.64,2.17c-.67.58-1.41,1-2,1.56a6.25,6.25,0,0,0-1.57,1.81,2.39,2.39,0,0,0-.15,2.14,5.07,5.07,0,0,0,1.46,1.71,21.32,21.32,0,0,1,1.77,1.53,2.5,2.5,0,0,1,.75,2.22,3,3,0,0,1-1.37,1.81c-.61.41-1.24.71-1.82,1a4.34,4.34,0,0,0-1.49,1.18,1.7,1.7,0,0,0-.16,1.64c.5,1.07,1.62,1.69,2.33,2.61a2.5,2.5,0,0,1,.6,1.6,2.55,2.55,0,0,1-.6,1.49,7.38,7.38,0,0,1-2.25,1.66,5.62,5.62,0,0,0-1.78,1.4,1.67,1.67,0,0,0-.33,1.66,1.86,1.86,0,0,0,.77,1,1,1,0,0,0,.77.13C150,292.74,150.12,292.68,150.13,292.69Z" style="fill:#455a64"></path><path d="M126.21,280.31s.11,0,.31-.08a1,1,0,0,0,.54-.7,2.29,2.29,0,0,0-.14-1.47,14.49,14.49,0,0,0-1.24-1.69,2.55,2.55,0,0,1-.5-1.2,1.81,1.81,0,0,1,.43-1.37c.63-.8,1.66-1.24,2.3-2.12a1.81,1.81,0,0,0,.27-1.54,4.33,4.33,0,0,0-.9-1.55c-.39-.49-.84-1-1.23-1.55a3.27,3.27,0,0,1-.69-2.05,2.52,2.52,0,0,1,1.2-1.92,6.2,6.2,0,0,1,2.19-.84c.79-.14,1.57-.2,2.34-.38a3.87,3.87,0,0,0,2-1,2.8,2.8,0,0,0,.6-2.21,14.24,14.24,0,0,0-.64-2.51,7.24,7.24,0,0,1-.46-2.74,2.84,2.84,0,0,1,1.62-2.39c1.8-.92,3.91-.5,5.49-1.56a2.28,2.28,0,0,0,.86-1,2.31,2.31,0,0,0,.07-1.33,15,15,0,0,0-1.2-2.73,4.25,4.25,0,0,1-.43-1.57,2.17,2.17,0,0,1,.59-1.6,5.74,5.74,0,0,1,3-1.19c1-.2,2.1-.53,2.33-1.47s-.39-2-.32-3.14a5.67,5.67,0,0,1,3.78-5.1c2.19-.71,4.32.3,6.22-.17a2.78,2.78,0,0,0,2.13-1.62,11.3,11.3,0,0,0,.21-2.9,3.22,3.22,0,0,1,.45-1.51,2.57,2.57,0,0,1,1.24-1,4.91,4.91,0,0,1,3,0c.93.24,1.79.6,2.66.76a4,4,0,0,0,2.52-.25c1.56-.72,2.68-2.11,4-3.16a10.84,10.84,0,0,1,9-2,10.68,10.68,0,0,1,6.48,4,12.38,12.38,0,0,1,2.36,5.3,12.15,12.15,0,0,1,.13,3.67,6.64,6.64,0,0,1-.25,1.26s.08-.44.14-1.27a12.82,12.82,0,0,0-.22-3.62,12.29,12.29,0,0,0-2.39-5.16,10.76,10.76,0,0,0-14.93-1.84c-1.28,1-2.39,2.44-4.1,3.24a4.49,4.49,0,0,1-2.78.31c-.94-.18-1.81-.54-2.7-.77a4.39,4.39,0,0,0-2.66,0,2,2,0,0,0-1,.78,2.72,2.72,0,0,0-.36,1.28,11.05,11.05,0,0,1-.24,3,3.25,3.25,0,0,1-2.48,1.94c-2.14.5-4.25-.5-6.18.17a5.16,5.16,0,0,0-3.42,4.63,5.52,5.52,0,0,0,.2,1.54,3.49,3.49,0,0,1,.1,1.71,2.14,2.14,0,0,1-1.14,1.35,6.88,6.88,0,0,1-1.58.5,5.34,5.34,0,0,0-2.76,1,1.69,1.69,0,0,0-.45,1.23,3.73,3.73,0,0,0,.39,1.38,16.45,16.45,0,0,1,1.23,2.83,2.84,2.84,0,0,1-.11,1.63,2.71,2.71,0,0,1-1,1.22,6.74,6.74,0,0,1-2.86.9,8.5,8.5,0,0,0-2.68.66,2.41,2.41,0,0,0-1.37,2,6.81,6.81,0,0,0,.43,2.57,15.11,15.11,0,0,1,.65,2.59,3.27,3.27,0,0,1-.73,2.55,4.23,4.23,0,0,1-2.28,1.16c-.8.18-1.61.24-2.35.37a5.61,5.61,0,0,0-2.05.76,2.16,2.16,0,0,0-1.06,1.63,3,3,0,0,0,.61,1.82c.38.55.82,1,1.21,1.55a4.62,4.62,0,0,1,.94,1.67,2.15,2.15,0,0,1-.33,1.79c-.73.95-1.77,1.37-2.35,2.1a1.64,1.64,0,0,0-.4,1.2,2.38,2.38,0,0,0,.45,1.11,13.17,13.17,0,0,1,1.21,1.74,2.39,2.39,0,0,1,.1,1.56,1,1,0,0,1-.63.72A.53.53,0,0,1,126.21,280.31Z" style="fill:#455a64"></path><path d="M209.41,281a1.27,1.27,0,0,0,.6.24,1.75,1.75,0,0,0,1.49-1c.42-.71.18-1.77.06-3a4.79,4.79,0,0,1,.26-1.95,18.5,18.5,0,0,0,.65-2,2,2,0,0,0-.58-2,6.08,6.08,0,0,0-2.24-1,5.43,5.43,0,0,1-2.56-1.25,1.87,1.87,0,0,1-.41-1.53,2.88,2.88,0,0,1,.77-1.4c.67-.76,1.57-1.37,1.9-2.26a1.93,1.93,0,0,0-1.22-2.29c-.89-.51-2-.6-3.11-1.09a3.3,3.3,0,0,1-1.42-1.13,3,3,0,0,1-.51-1.77,7.77,7.77,0,0,1,1-3.37,9.86,9.86,0,0,0,1.11-3,3.23,3.23,0,0,0-1-2.71c-.69-.73-1.56-1.3-2.3-2a5.11,5.11,0,0,1-1.57-2.56,10.46,10.46,0,0,1-.25-2.8,14,14,0,0,0-.35-4.85,7.67,7.67,0,0,0-2.19-3.28,8.13,8.13,0,0,0-2.57-1.58,9.62,9.62,0,0,0-2.55-.52,3.38,3.38,0,0,1,.69,0,7.12,7.12,0,0,1,1.92.37,8.23,8.23,0,0,1,5.05,4.94,14.07,14.07,0,0,1,.43,5,10.16,10.16,0,0,0,.26,2.68,4.67,4.67,0,0,0,1.46,2.33c.71.67,1.58,1.23,2.33,2a3.72,3.72,0,0,1,1.11,3.11c-.29,2.32-2.09,4.09-2.07,6.33a2.62,2.62,0,0,0,.42,1.49,2.76,2.76,0,0,0,1.2.95c1,.45,2.13.54,3.15,1.12a3.21,3.21,0,0,1,1.27,1.16,2,2,0,0,1,.17,1.74,8.54,8.54,0,0,1-2,2.41,2.53,2.53,0,0,0-.66,1.16,1.42,1.42,0,0,0,.3,1.16,5.24,5.24,0,0,0,2.33,1.13,6.22,6.22,0,0,1,2.39,1.14,2.33,2.33,0,0,1,.67,1.11,2.73,2.73,0,0,1,0,1.24,17.11,17.11,0,0,1-.69,2.06,4.29,4.29,0,0,0-.28,1.83c.07,1.16.31,2.29-.19,3.1a1.82,1.82,0,0,1-1.67,1A.76.76,0,0,1,209.41,281Z" style="fill:#455a64"></path><g style="opacity:0.30000000000000004"><polygon points="140.25 338.09 140.25 364.78 133.34 365.32 130.81 355.75 140.25 338.09"></polygon></g></g></svg>