<svg xmlns="http://www.w3.org/2000/svg" xmlns:xlink="http://www.w3.org/1999/xlink" width="728.056" height="629.07" viewBox="0 0 728.056 629.07">
  <defs>
    <linearGradient id="linear-gradient" x1="0.024" y1="-0.943" x2="0.855" y2="1.612" gradientUnits="objectBoundingBox">
      <stop offset="0" stop-color="#ffd5d3"/>
      <stop offset="1" stop-color="#fe96a6"/>
    </linearGradient>
    <linearGradient id="linear-gradient-2" x1="0.613" y1="0.054" x2="0.415" y2="1.131" gradientUnits="objectBoundingBox">
      <stop offset="0" stop-color="#52c4ff"/>
      <stop offset="1" stop-color="#2c84ff"/>
    </linearGradient>
    <linearGradient id="linear-gradient-3" x1="-1.234" y1="-1.672" x2="0.504" y2="0.672" xlink:href="#linear-gradient-2"/>
    <linearGradient id="linear-gradient-4" x1="0.55" y1="0.006" x2="0.383" y2="1.117" xlink:href="#linear-gradient-2"/>
    <linearGradient id="linear-gradient-5" x1="0.703" y1="0.432" x2="2.246" y2="-1.629" xlink:href="#linear-gradient"/>
    <linearGradient id="linear-gradient-6" x1="0.513" y1="0.116" x2="0.351" y2="2.023" xlink:href="#linear-gradient-2"/>
    <linearGradient id="linear-gradient-7" x1="0.978" y1="-3.111" x2="0.286" y2="2.695" xlink:href="#linear-gradient"/>
    <linearGradient id="linear-gradient-8" x1="-1.876" y1="-1.593" x2="0.699" y2="0.651" xlink:href="#linear-gradient-2"/>
    <linearGradient id="linear-gradient-9" x1="1.693" y1="4.828" x2="0.233" y2="-0.624" gradientUnits="objectBoundingBox">
      <stop offset="0" stop-color="#002757"/>
      <stop offset="1" stop-color="#061f3e"/>
    </linearGradient>
    <linearGradient id="linear-gradient-10" x1="1.25" y1="2.481" x2="-0.713" y2="-2.623" xlink:href="#linear-gradient"/>
    <linearGradient id="linear-gradient-11" x1="1.45" y1="3.725" x2="0.268" y2="-0.252" xlink:href="#linear-gradient"/>
    <linearGradient id="linear-gradient-12" x1="0.052" y1="0.804" x2="2.32" y2="-2.222" xlink:href="#linear-gradient"/>
    <linearGradient id="linear-gradient-13" x1="1.433" y1="-0.118" x2="0.647" y2="0.444" gradientUnits="objectBoundingBox">
      <stop offset="0" stop-color="#56e281"/>
      <stop offset="1" stop-color="#00966a"/>
    </linearGradient>
    <linearGradient id="linear-gradient-14" x1="-0.137" y1="0.083" x2="0.374" y2="0.468" xlink:href="#linear-gradient-13"/>
    <linearGradient id="linear-gradient-15" x1="0.531" y1="0.165" x2="0.398" y2="1.383" xlink:href="#linear-gradient-13"/>
    <linearGradient id="linear-gradient-16" x1="0.548" y1="0.006" x2="0.415" y2="1.224" xlink:href="#linear-gradient-13"/>
    <linearGradient id="linear-gradient-17" x1="0.044" y1="-1.316" x2="0.534" y2="0.634" gradientUnits="objectBoundingBox">
      <stop offset="0" stop-color="#f4abff"/>
      <stop offset="1" stop-color="#9552ff"/>
    </linearGradient>
    <linearGradient id="linear-gradient-18" x1="0.516" y1="-1.455" x2="0.498" y2="0.762" gradientUnits="objectBoundingBox">
      <stop offset="0" stop-color="#ffb1e2"/>
      <stop offset="1" stop-color="#ff5c8e"/>
    </linearGradient>
    <linearGradient id="linear-gradient-19" x1="0.528" y1="-1.45" x2="0.503" y2="0.765" xlink:href="#linear-gradient-2"/>
    <linearGradient id="linear-gradient-20" x1="0.522" y1="-1.444" x2="0.497" y2="0.769" xlink:href="#linear-gradient-18"/>
    <linearGradient id="linear-gradient-21" x1="0.516" y1="-1.439" x2="0.498" y2="0.772" xlink:href="#linear-gradient-2"/>
    <linearGradient id="linear-gradient-22" x1="0.486" y1="-1.869" x2="0.529" y2="4.752" xlink:href="#linear-gradient-18"/>
    <linearGradient id="linear-gradient-23" x1="0.508" y1="-0.778" x2="0.485" y2="2.119" xlink:href="#linear-gradient-2"/>
    <linearGradient id="linear-gradient-24" x1="0.486" y1="-1.884" x2="0.529" y2="4.737" xlink:href="#linear-gradient-18"/>
    <linearGradient id="linear-gradient-26" x1="-0.066" y1="-0.903" x2="0.779" y2="1.191" xlink:href="#linear-gradient-17"/>
    <linearGradient id="linear-gradient-27" x1="0.103" y1="-0.36" x2="1.407" y2="2.467" gradientUnits="objectBoundingBox">
      <stop offset="0" stop-color="#fff489"/>
      <stop offset="1" stop-color="#fe7f20"/>
    </linearGradient>
    <linearGradient id="linear-gradient-28" x1="-0.277" y1="-1.64" x2="0.747" y2="1.179" xlink:href="#linear-gradient-27"/>
    <linearGradient id="linear-gradient-29" x1="0.135" y1="0.298" x2="9.964" y2="5.945" xlink:href="#linear-gradient-27"/>
    <linearGradient id="linear-gradient-30" x1="-0.05" y1="-0.446" x2="1.328" y2="1.923" gradientUnits="objectBoundingBox">
      <stop offset="0" stop-color="#31e282"/>
      <stop offset="1" stop-color="#006391"/>
    </linearGradient>
  </defs>
  <g id="Group_23" data-name="Group 23" transform="translate(-351.884 -141.112)">
    <g id="Group_1" data-name="Group 1" transform="translate(355.508 278.449)">
      <path id="Path_1" data-name="Path 1" d="M1063.34,430.448c-14.17,38.66-36.53,77.48-65.717,112.8q-7.718,9.346-16.082,18.362a418.478,418.478,0,0,1-43.615,40.77q-10.015,8.105-20.611,15.6-15.359,10.882-31.872,20.372-9.06,5.192-18.45,9.92-7.253,3.659-14.717,7.006a359.46,359.46,0,0,1-91.929,27.475q-6.09.955-12.26,1.7-4.88.6-9.813,1.045-4.3.4-8.637.7-9.152.627-18.45.766a361.321,361.321,0,0,1-45.674-2.188q-13.377-1.48-27.008-3.991-15.987-2.955-31.109-6.915-10.224-2.659-20.05-5.754-11.75-3.671-22.918-7.94h-.01A379.912,379.912,0,0,1,512.3,635.741a352.626,352.626,0,0,1-49.815-33.972q-7.63-6.227-14.718-12.75-9.718-8.908-18.45-18.318c-60.922-65.478-85.8-146.633-72.535-211.992C383.843,225.483,493.426,186.354,587.345,196.9c30.858,3.464,60.024,12.291,84.017,24.9a199.962,199.962,0,0,0,44.452,17.1,193.323,193.323,0,0,0,20.012,3.961h.01q7.284,1.057,14.52,1.582c6.2.467,12.377.657,18.509.606,2.379-.02,4.757-.069,7.136-.16,57.587-2.1,111.632-23.684,160.364-31.684C1013.685,200.516,1115.833,287.241,1063.34,430.448Z" transform="translate(-353.313 -195.272)" fill="#4786d1"/>
      <path id="Path_2" data-name="Path 2" d="M921.6,429.461c-14.17,38.66-36.53,77.48-65.717,112.8q-7.718,9.346-16.082,18.362a418.472,418.472,0,0,1-43.615,40.77q-10.015,8.106-20.611,15.6-15.359,10.882-31.872,20.372-9.06,5.192-18.45,9.92-7.253,3.659-14.718,7.006a359.459,359.459,0,0,1-91.929,27.475q-6.09.955-12.26,1.7-4.88.6-9.813,1.045-4.3.4-8.637.7-9.151.627-18.45.766a361.332,361.332,0,0,1-45.674-2.188q-13.377-1.48-27.008-3.991-15.987-2.955-31.109-6.915-10.224-2.659-20.05-5.754V195.915c30.858,3.464,60.024,12.291,84.017,24.9a199.962,199.962,0,0,0,44.452,17.1,193.336,193.336,0,0,0,20.012,3.961h.01q7.284,1.057,14.52,1.582c6.2.467,12.377.657,18.509.606,2.379-.02,4.757-.069,7.136-.16,57.587-2.1,111.632-23.684,160.364-31.684C871.946,199.528,974.093,286.254,921.6,429.461Z" transform="translate(-211.574 -194.285)" fill="#336dc1"/>
    </g>
    <g id="Group_2" data-name="Group 2" transform="translate(603.723 311.36)">
      <path id="Path_3" data-name="Path 3" d="M527.2,346.45V450.578q-6.09.955-12.26,1.7-4.88.6-9.813,1.045V346.45Z" transform="translate(-368.381 3.989)" fill="#4a9ae2"/>
      <rect id="Rectangle_2" data-name="Rectangle 2" width="22.072" height="30.51" transform="translate(136.747 350.438)" fill="#4788d6"/>
      <path id="Path_4" data-name="Path 4" d="M451.2,365.165H705.871L710.4,337.5H451.2Z" transform="translate(-451.199 -9.758)" fill="#5aa3e7"/>
      <path id="Path_5" data-name="Path 5" d="M562.318,208.251H693.627a33.251,33.251,0,0,1,32.714,39.2L673.879,535.99h-198.9L529.6,235.556A33.254,33.254,0,0,1,562.318,208.251Z" transform="translate(-414.679 -208.251)" fill="#5aa3e7"/>
      <path id="Path_6" data-name="Path 6" d="M555.275,208.251H686.584a33.251,33.251,0,0,1,32.714,39.2L666.836,535.99h-198.9l54.625-300.434A33.249,33.249,0,0,1,555.275,208.251Z" transform="translate(-425.495 -208.251)" fill="#6aacec"/>
    </g>
    <g id="Group_7" data-name="Group 7" transform="translate(514.497 217.01)">
      <g id="Group_3" data-name="Group 3" transform="translate(0 352.8)">
        <path id="Path_7" data-name="Path 7" d="M651.865,331.23c-.01.715-.038,1.453-.069,2.2-.6,12.608-4.7,27.972-18.45,39.8a58.339,58.339,0,0,1-8.766,6.23,99.681,99.681,0,0,1-9.684,4.947c-22.419,10.029-50.152,13.7-69.9,15-14.969,1-25.337.619-25.337.619l-51.527,83.68h-.01a379.911,379.911,0,0,1-52.115-24.432c23.088-40.5,52.911-92.783,62.981-110.318,4.141-7.2,12.887-13.036,23.813-17.733,34.641-14.908,91.1-18.45,91.1-18.45l13.731-.647,25.7-1.215,15.9-.745s.221.7.527,1.96c.249.994.548,2.348.847,3.991A77.822,77.822,0,0,1,651.865,331.23Z" transform="translate(-416.012 -310.173)" fill="#202070"/>
        <path id="Path_8" data-name="Path 8" d="M681.526,331.23c-.259,15.265-5.383,35.407-27.285,48.233-17.466,10.219-40.194,15.415-60.037,18.042-6.568.865-12.818,1.443-18.45,1.841-7.453.517-13.833.7-18.45.746-5.023.051-7.98-.058-7.98-.058L511.63,508.312q-13.377-1.48-27.008-3.991-15.987-2.955-31.109-6.915c7.574-23.058,21.285-64.058,33.9-97.992,8.218-22.13,15.97-41.267,21.245-50.451,4.141-7.2,12.9-13.036,23.813-17.733,12.778-5.495,28.51-9.443,43.288-12.24,6-1.136,11.852-2.079,17.276-2.865,17.454-2.518,30.551-3.345,30.551-3.345l11.063-.517,2.658-.129,41.607-1.96.089.3c.091.309.249.877.439,1.663A76.779,76.779,0,0,1,681.526,331.23Z" transform="translate(-358.42 -310.173)" fill="#34318b"/>
      </g>
      <g id="Group_5" data-name="Group 5" transform="translate(84.615 118.825)">
        <g id="Group_4" data-name="Group 4" transform="translate(131.43 0)">
          <path id="Path_9" data-name="Path 9" d="M560.646,395.693q0,3.2-.02,6.377c-.069,26.889-.429,51.768-.429,51.768l-57.7-10.349s-1.113-22.84-1.273-41.419c-.02-2.2-.02-4.339-.01-6.377.041-8.538.388-15.245,1.283-16.779a4.612,4.612,0,0,0,.368-1.313c.238-1.321.479-3.512.708-6.388.347-4.529.677-10.767.976-18.083q.133-3.073.259-6.387c.208-5.652.406-11.761.586-18.093.061-2.107.119-4.237.18-6.377.167-5.982.317-12.07.456-18.093.051-2.138.1-4.278.15-6.388.139-6.268.259-12.38.378-18.09q.061-3.286.119-6.38c.33-16.878.538-29,.609-29.285.238-.946,12.288-19.158,12.288-19.158L548.2,217.9l12,13.784s-.208,18.488-.347,41.635q-.015,3.134-.031,6.38c-.028,5.891-.048,11.989-.058,18.09-.01,2.13-.01,4.27-.01,6.388,0,6.172.01,12.281.03,18.093.01,2.168.02,4.3.038,6.377.051,6.7.119,12.859.241,18.093.038,2.031.089,3.92.137,5.652.01.238.02.487.02.735.16,5.257.269,11.426.33,18.083q.03,3.134.051,6.388C560.636,383.463,560.646,389.581,560.646,395.693Z" transform="translate(-501.211 -217.903)" fill="#fff"/>
          <path id="Path_10" data-name="Path 10" d="M556.61,239.758q-.015,3.134-.031,6.38H503.321q.061-3.286.119-6.38Z" transform="translate(-497.971 -184.339)" fill="#efeff4"/>
          <path id="Path_11" data-name="Path 11" d="M556.841,249.408c-.01,2.13-.01,4.27-.01,6.388H503.113c.051-2.138.1-4.278.15-6.388Z" transform="translate(-498.291 -169.519)" fill="#efeff4"/>
          <path id="Path_12" data-name="Path 12" d="M557.284,265.439H502.862c.061-2.107.119-4.237.18-6.377h54.2C557.256,261.23,557.267,263.36,557.284,265.439Z" transform="translate(-498.676 -154.693)" fill="#efeff4"/>
          <path id="Path_13" data-name="Path 13" d="M558.194,275.1H502.529q.133-3.073.259-6.388h55.249c.038,2.031.089,3.92.137,5.652C558.184,274.6,558.194,274.851,558.194,275.1Z" transform="translate(-499.188 -139.873)" fill="#efeff4"/>
          <path id="Path_14" data-name="Path 14" d="M559.594,284.75H501.865c.238-1.321.479-3.512.708-6.388h56.971Q559.574,281.5,559.594,284.75Z" transform="translate(-500.208 -125.053)" fill="#efeff4"/>
          <path id="Path_15" data-name="Path 15" d="M560.646,288.016q0,3.2-.02,6.377h-59.4c-.02-2.2-.02-4.339-.01-6.377Z" transform="translate(-501.211 -110.226)" fill="#efeff4"/>
        </g>
        <path id="Path_16" data-name="Path 16" d="M553.175,285.89l-18.312,66.324-77.678,3.7-7.8-28.442,50.687-12.386,11.326-55.361,23.824,3.655Z" transform="translate(-449.381 -153.672)" fill="url(#linear-gradient)"/>
        <path id="Path_17" data-name="Path 17" d="M592.933,446.265c-1.892,6.618-61.956,9.453-66.077,3.89-1.872-2.526-5.782-31.126-7.792-70.4-2.417-47.13-2.089-109.633,7.772-160.962L558.411,232.5l10.12,15.136,19.675,24.112s-.837,43.217-1.722,71.876c-.061,1.772-.109,3.484-.17,5.125C585.369,377.044,594.825,439.647,592.933,446.265Z" transform="translate(-344.291 -216.54)" fill="url(#linear-gradient-2)"/>
        <path id="Path_18" data-name="Path 18" d="M592.173,414.329c-1.892,6.618-61.956,9.453-66.077,3.89-1.872-2.526-5.782-31.126-7.792-70.4,8.9-3.593,21.7-13.574,24.183-41.389,3.87-43.465,23.086-66.843,23.086-66.843s8.16,27.665,0,61.36l20.152,10.747c-.061,1.773-.109,3.484-.17,5.125C584.609,345.108,594.065,407.711,592.173,414.329Z" transform="translate(-343.531 -184.604)" fill="url(#linear-gradient-3)"/>
        <path id="Path_19" data-name="Path 19" d="M551.042,447.292s-52.493,1.316-51.547-1.052,10.4-21.278,15.531-38.095,7.166-81.081,7.166-81.081l-4.866,18.825a1.521,1.521,0,0,1-.16-.038c-1-.259-6.616-1.712-13.543-3.542-12.927-3.433-30.4-8.211-30.847-9.1-.718-1.423,5.9-30.741,12.05-51.08s17.5-47.287,77.112-61.479C550.613,259.9,551.042,447.292,551.042,447.292Z" transform="translate(-413.534 -213.678)" fill="url(#linear-gradient-4)"/>
        <path id="Path_20" data-name="Path 20" d="M670.008,276.334s-19.393,76.027-36.6,76.377-94.158-10.668-106.4-11.733-23.763-6.915-23.763-6.915-17.733,12.767-20.043,9.573c-2.249-3.1,6.519-15.088,7.006-15.752-.6.517-14.17,12.5-17.116,9.552-3.015-3.015,14.013-28.56,24.123-28.908s32.63,10.457,32.63,10.457l82.615-7.1,2.995-12.707,7.841-33.239Z" transform="translate(-413.505 -144.122)" fill="url(#linear-gradient-5)"/>
        <path id="Path_21" data-name="Path 21" d="M519.739,217.9s39.018-.355,67.748,20.573,30.81,51.189,10.348,111.644c-10.62-2.232-46.747-7.554-46.719-10.392s13.7-70.04,13.7-70.04Z" transform="translate(-341.327 -217.903)" fill="url(#linear-gradient-6)"/>
        <path id="Path_22" data-name="Path 22" d="M545.6,289.2c-.241,1.461-17.763,2.556-17.763,2.556l2.995-12.707C538.258,283.65,545.723,288.466,545.6,289.2Z" transform="translate(-328.885 -123.991)" fill="url(#linear-gradient-7)"/>
        <path id="Path_23" data-name="Path 23" d="M506.193,238.184s-1.77,19.515-2.716,61.959l-5.026,18.787c-1-.259-6.616-1.712-13.544-3.542,5.513-9.048,11.175-21.485,11.713-34.988C497.686,253.439,506.193,238.184,506.193,238.184Z" transform="translate(-394.819 -186.756)" fill="url(#linear-gradient-8)"/>
      </g>
      <g id="Group_6" data-name="Group 6" transform="translate(168.364)">
        <path id="Path_24" data-name="Path 24" d="M507.55,223.541c-15.605.946-30.977-23.174-22.936-32.161s19.388,0,19.388,0-9.694-8.038-2.128-17.5,20.337,8.038,43.747,4.491,44.883,8.819,40.435,28.378c17.261,0,12.06,23.646,4.493,38.544s-20.808,36.888-36.416,20.334-31.451-23.172-31.451-23.172Z" transform="translate(-482.408 -171.043)" fill="url(#linear-gradient-9)"/>
        <path id="Path_25" data-name="Path 25" d="M532.217,260.874c-12.648,2.239-18.917-4.377-21.513-8.746-1.582-2.658-1.772-6.738-2.936-11.624a35.078,35.078,0,0,0-4.159-10.369l34.519-25.893c-.327,4.488,1.831,12.02,4.27,19.135,2.835,8.261,6.06,15.973,6.248,17.753C549.006,244.435,544.865,258.625,532.217,260.874Z" transform="translate(-449.849 -120.056)" fill="url(#linear-gradient-10)"/>
        <path id="Path_26" data-name="Path 26" d="M542.4,223.378c-7.255,17.464-20.7,20.748-34.631,17.126a35.078,35.078,0,0,0-4.159-10.369l34.519-25.893C537.8,208.731,539.958,216.263,542.4,223.378Z" transform="translate(-449.849 -120.056)" fill="url(#linear-gradient-11)"/>
        <path id="Path_27" data-name="Path 27" d="M491.707,188.6c43.273,6.918,59.943,0,59.943,0s4.346,24.209,7.361,25.274.974-12.681,7.714-14.365,11.35,10.108,6.829,16.936-10.818,4.433-10.818,4.433-10.544,36.807-37.864,37.42-33.875-34.405-33.52-44.16S491,194.628,491.707,188.6Z" transform="translate(-468.692 -144.083)" fill="url(#linear-gradient-12)"/>
      </g>
    </g>
    <g id="Group_8" data-name="Group 8" transform="translate(442.756 417.416)">
      <path id="Path_28" data-name="Path 28" d="M563.758,296.2H450.632a5.027,5.027,0,0,0-5.028,5.026h0a5.027,5.027,0,0,0,5.028,5.028H563.758a5.025,5.025,0,0,0,5.026-5.028h0A5.025,5.025,0,0,0,563.758,296.2Z" transform="translate(-298.825 -179.238)" fill="#202070"/>
      <path id="Path_29" data-name="Path 29" d="M548.814,250.075H395.586c-5.193,0-8.644,4.207-7.714,9.4l21.115,117.619H581.015L559.9,259.473A11.745,11.745,0,0,0,548.814,250.075Z" transform="translate(-387.72 -250.075)" fill="#202070"/>
      <path id="Path_30" data-name="Path 30" d="M435.471,297.461,418.646,284.2l9.7-13.26,16.825,13.26Z" transform="translate(-340.225 -218.032)" fill="#4848aa"/>
      <path id="Path_31" data-name="Path 31" d="M472.024,298.985a1.327,1.327,0,1,1-1.326-1.326A1.328,1.328,0,0,1,472.024,298.985Z" transform="translate(-262.328 -176.997)" fill="#4848aa"/>
      <circle id="Ellipse_1" data-name="Ellipse 1" cx="1.327" cy="1.327" r="1.327" transform="translate(228.147 120.662)" fill="#4848aa"/>
      <path id="Path_32" data-name="Path 32" d="M481.733,298.735a.913.913,0,1,1-.913-.913A.912.912,0,0,1,481.733,298.735Z" transform="translate(-246.144 -176.747)" fill="#4848aa"/>
      <path id="Path_33" data-name="Path 33" d="M478.428,299.648H473.4a.912.912,0,0,1-.913-.913h0a.914.914,0,0,1,.913-.913h5.031a.914.914,0,0,1,.913.913h0A.912.912,0,0,1,478.428,299.648Z" transform="translate(-257.543 -176.747)" fill="#4848aa"/>
    </g>
    <g id="Group_12" data-name="Group 12" transform="translate(409.705 544.432)">
      <g id="Group_11" data-name="Group 11">
        <path id="Path_34" data-name="Path 34" d="M771.862,317.155H444.914a8.5,8.5,0,0,1-8.495-8.495h0a8.5,8.5,0,0,1,8.495-8.495H771.862a8.5,8.5,0,0,1,8.495,8.495h0A8.5,8.5,0,0,1,771.862,317.155Z" transform="translate(-279.879 -300.165)" fill="#89bef5"/>
        <path id="Path_35" data-name="Path 35" d="M710.129,317.155H383.181a8.5,8.5,0,0,1-8.495-8.495h0a8.5,8.5,0,0,1,8.495-8.495H710.129a8.5,8.5,0,0,1,8.495,8.495h0A8.5,8.5,0,0,1,710.129,317.155Z" transform="translate(-374.686 -300.165)" fill="#a9d0ff"/>
        <g id="Group_9" data-name="Group 9" transform="translate(21.81 16.99)">
          <path id="Path_36" data-name="Path 36" d="M683.6,306.865v207.95q-9.152.627-18.45.766V336.31H401.737V417.64q-9.718-8.908-18.45-18.318V306.865Z" transform="translate(-383.287 -306.865)" fill="#89bef5"/>
        </g>
        <rect id="Rectangle_3" data-name="Rectangle 3" width="300.318" height="10.349" transform="translate(21.81 16.989)" fill="#6aacec"/>
        <g id="Group_10" data-name="Group 10" transform="translate(322.127 16.99)">
          <path id="Path_37" data-name="Path 37" d="M657.527,306.865V466.97q-9.06,5.192-18.45,9.92V336.31H520.17V513.073q-9.136,1.107-18.45,1.742V306.865Z" transform="translate(-501.72 -306.865)" fill="#6aacec"/>
        </g>
        <rect id="Rectangle_4" data-name="Rectangle 4" width="155.806" height="10.349" transform="translate(322.128 16.989)" fill="#4788d6"/>
      </g>
      <path id="Path_38" data-name="Path 38" d="M405.281,318.477v94.079q-7.63-6.227-14.718-12.75V318.477Z" transform="translate(-350.303 -272.042)" fill="#6aacec"/>
      <path id="Path_39" data-name="Path 39" d="M564.8,318.477v140.58q-7.253,3.659-14.718,7.006V318.477Z" transform="translate(-105.317 -272.042)" fill="#4788d6"/>
    </g>
    <g id="Group_13" data-name="Group 13" transform="translate(912.152 361.703)">
      <path id="Path_40" data-name="Path 40" d="M643.558,400.812a419.492,419.492,0,0,1-59.7,59.131l11.631-171.927h40.433Z" transform="translate(-555.891 -136.094)" fill="#8fc9ef"/>
      <path id="Path_41" data-name="Path 41" d="M589.582,364.223c-4.907-52.285,11.386-107,31.18-132.354,12.055,36.566-29.633,62.1-18.607,141.277" transform="translate(-548.459 -222.322)" fill="url(#linear-gradient-13)"/>
      <path id="Path_42" data-name="Path 42" d="M606.554,361.586c6.971-52.051-7.148-107.369-25.926-133.482-13.49,36.061,27.156,63.224,13.011,141.9" transform="translate(-565.134 -228.104)" fill="url(#linear-gradient-14)"/>
      <path id="Path_43" data-name="Path 43" d="M590.7,356.327c1.42-52.5,21.754-92.527,44.457-115.311,7.567,37.75-36.89,58.087-35.47,138.011" transform="translate(-545.382 -208.274)" fill="url(#linear-gradient-15)"/>
      <path id="Path_44" data-name="Path 44" d="M618.153,364.267c-1.417-52.5-21.754-92.525-44.454-115.311-7.567,37.75,36.888,58.087,35.47,138.011" transform="translate(-572.831 -196.08)" fill="url(#linear-gradient-16)"/>
      <path id="Path_45" data-name="Path 45" d="M639.959,429.094a418.468,418.468,0,0,1-43.615,40.77q-10.015,8.105-20.611,15.6l13.8-203.91h40.432Z" transform="translate(-568.374 -146.015)" fill="#f0f8ff"/>
    </g>
    <g id="Group_16" data-name="Group 16" transform="translate(351.884 265.031)">
      <rect id="Rectangle_5" data-name="Rectangle 5" width="157.49" height="129.413" rx="5.359" fill="#4848aa"/>
      <g id="Group_15" data-name="Group 15" transform="translate(34.292 18.565)">
        <rect id="Rectangle_6" data-name="Rectangle 6" width="66.683" height="57.468" rx="2.425" transform="translate(11.116 30.836)" fill="url(#linear-gradient-17)"/>
        <g id="Group_14" data-name="Group 14">
          <path id="Path_46" data-name="Path 46" d="M387.635,227.057H365.407l17.82-29.755h13.318Z" transform="translate(-365.407 -197.302)" fill="url(#linear-gradient-18)"/>
          <path id="Path_47" data-name="Path 47" d="M396.4,227.057H374.173l8.91-29.755H396.4Z" transform="translate(-351.945 -197.302)" fill="url(#linear-gradient-19)"/>
          <path id="Path_48" data-name="Path 48" d="M405.166,227.057H382.939V197.3h13.318Z" transform="translate(-338.483 -197.302)" fill="url(#linear-gradient-20)"/>
          <path id="Path_49" data-name="Path 49" d="M419.328,227.057H397.1l-8.91-29.755h13.318Z" transform="translate(-330.418 -197.302)" fill="url(#linear-gradient-21)"/>
          <path id="Rectangle_7" data-name="Rectangle 7" d="M0,0H22.228a0,0,0,0,1,0,0V16.213a4.36,4.36,0,0,1-4.36,4.36H4.359A4.359,4.359,0,0,1,0,16.213V0A0,0,0,0,1,0,0Z" transform="translate(0 29.755)" fill="url(#linear-gradient-22)"/>
          <path id="Rectangle_8" data-name="Rectangle 8" d="M0,0H22.228a0,0,0,0,1,0,0V16.213a4.359,4.359,0,0,1-4.359,4.359H4.359A4.359,4.359,0,0,1,0,16.213V0A0,0,0,0,1,0,0Z" transform="translate(22.228 29.755)" fill="url(#linear-gradient-23)"/>
          <path id="Rectangle_9" data-name="Rectangle 9" d="M0,0H22.228a0,0,0,0,1,0,0V16.213a4.359,4.359,0,0,1-4.359,4.359H4.359A4.359,4.359,0,0,1,0,16.213V0A0,0,0,0,1,0,0Z" transform="translate(44.455 29.755)" fill="url(#linear-gradient-24)"/>
          <path id="Rectangle_10" data-name="Rectangle 10" d="M0,0H22.228a0,0,0,0,1,0,0V16.213a4.359,4.359,0,0,1-4.359,4.359H4.359A4.359,4.359,0,0,1,0,16.213V0A0,0,0,0,1,0,0Z" transform="translate(66.683 29.755)" fill="url(#linear-gradient-23)"/>
        </g>
        <path id="Path_50" data-name="Path 50" d="M398.452,224.376v27.812H379.127V224.376a5.314,5.314,0,0,1,5.315-5.315h8.7A5.313,5.313,0,0,1,398.452,224.376Z" transform="translate(-344.337 -163.885)" fill="#202070"/>
      </g>
    </g>
    <g id="Group_18" data-name="Group 18" transform="translate(525.694 212.4)">
      <rect id="Rectangle_11" data-name="Rectangle 11" width="127.691" height="98.251" rx="2.588" fill="url(#linear-gradient-26)"/>
      <g id="Group_17" data-name="Group 17" transform="translate(14.538 13.005)">
        <path id="Path_51" data-name="Path 51" d="M441.591,177.782H427.875a1.714,1.714,0,0,1-1.714-1.714h0a1.715,1.715,0,0,1,1.714-1.714h13.716a1.715,1.715,0,0,1,1.714,1.714h0A1.714,1.714,0,0,1,441.591,177.782Z" transform="translate(-426.161 -174.354)" fill="#fff"/>
        <path id="Path_52" data-name="Path 52" d="M448.093,181.095H427.875a1.715,1.715,0,0,1-1.714-1.714h0a1.716,1.716,0,0,1,1.714-1.717h20.218a1.716,1.716,0,0,1,1.714,1.717h0A1.715,1.715,0,0,1,448.093,181.095Z" transform="translate(-426.161 -169.271)" fill="#fff" opacity="0.44"/>
      </g>
      <path id="Path_53" data-name="Path 53" d="M426.161,200.364c13.833,0,12.887,9.063,23.646,9.063s8.632-17.464,22.464-17.464,9.578,8.731,18.8,8.731,7.093-9.836,16.67-9.836,5.315,12.6,18.445,12.6" transform="translate(-411.623 -136.004)" fill="none" stroke="#000" stroke-linecap="round" stroke-linejoin="round" stroke-width="0.929" opacity="0.15"/>
      <path id="Path_54" data-name="Path 54" d="M426.161,201.683c13.833,0,12.887,14.543,23.646,14.543s8.632-28.02,22.464-28.02,9.578,14.01,18.8,14.01,7.093-15.785,16.67-15.785,5.315,20.218,18.445,20.218" transform="translate(-411.623 -142.803)" fill="none" stroke="#fff" stroke-linecap="round" stroke-linejoin="round" stroke-width="1.177"/>
    </g>
    <g id="Group_20" data-name="Group 20" transform="translate(456.879 156.003)">
      <circle id="Ellipse_2" data-name="Ellipse 2" cx="43.273" cy="43.273" r="43.273" fill="url(#linear-gradient-27)"/>
      <circle id="Ellipse_3" data-name="Ellipse 3" cx="29.44" cy="29.44" r="29.44" transform="translate(13.833 13.833)" fill="url(#linear-gradient-28)"/>
      <g id="Group_19" data-name="Group 19" transform="translate(35.699 29.086)">
        <path id="Path_55" data-name="Path 55" d="M413.144,186.176V182.95a13.7,13.7,0,0,1-5.776-1.461l1.022-3.976a12,12,0,0,0,5.639,1.494c1.937,0,3.264-.745,3.264-2.1,0-1.291-1.088-2.107-3.6-2.957-3.634-1.222-6.116-2.921-6.116-6.215,0-2.992,2.107-5.335,5.744-6.048v-3.228h3.327v2.99a12.194,12.194,0,0,1,4.927,1.121l-.984,3.839a11.279,11.279,0,0,0-4.894-1.156c-2.209,0-2.921.951-2.921,1.9,0,1.118,1.189,1.833,4.078,2.921,4.042,1.428,5.675,3.294,5.675,6.352,0,3.025-2.143,5.607-6.048,6.286v3.464Z" transform="translate(-407.368 -158.455)" fill="url(#linear-gradient-29)"/>
      </g>
    </g>
    <path id="Path_56" data-name="Path 56" d="M587.573,145.253v41.373a4.14,4.14,0,0,1-4.141,4.141H522.8l-11.657,11.657a1.9,1.9,0,0,1-3.241-1.341v-55.83a4.141,4.141,0,0,1,4.141-4.141h71.387A4.14,4.14,0,0,1,587.573,145.253Z" transform="translate(239.611)" fill="#bde1ff"/>
    <g id="Group_21" data-name="Group 21" transform="translate(763.052 163.807)">
      <path id="Path_57" data-name="Path 57" d="M520.772,153.432a3.37,3.37,0,1,1-3.37-3.37A3.37,3.37,0,0,1,520.772,153.432Z" transform="translate(-514.032 -150.062)" fill="#fff"/>
      <path id="Path_58" data-name="Path 58" d="M529.025,153.432a3.37,3.37,0,1,1-3.37-3.37A3.37,3.37,0,0,1,529.025,153.432Z" transform="translate(-501.357 -150.062)" fill="#fff"/>
      <path id="Path_59" data-name="Path 59" d="M537.278,153.432a3.37,3.37,0,1,1-3.37-3.37A3.37,3.37,0,0,1,537.278,153.432Z" transform="translate(-488.683 -150.062)" fill="#fff"/>
    </g>
    <g id="Group_22" data-name="Group 22" transform="translate(859.584 217.846)">
      <rect id="Rectangle_12" data-name="Rectangle 12" width="49.408" height="49.408" rx="4.287" fill="url(#linear-gradient-30)"/>
      <path id="Path_60" data-name="Path 60" d="M557.926,184.592l6.917,6.917,12.946-12.946" transform="translate(-543.154 -160.331)" fill="none" stroke="#fff" stroke-linecap="round" stroke-linejoin="round" stroke-width="1.57"/>
    </g>
  </g>
</svg>
