<svg xmlns="http://www.w3.org/2000/svg" x="0px" y="0px"
width="96" height="96"
viewBox="0 0 172 172"
style=" fill:#000000;"><g fill="none" fill-rule="nonzero" stroke="none" stroke-width="1" stroke-linecap="butt" stroke-linejoin="miter" stroke-miterlimit="10" stroke-dasharray="" stroke-dashoffset="0" font-family="none" font-weight="none" font-size="none" text-anchor="none" style="mix-blend-mode: normal"><path d="M0,172v-172h172v172z" fill="none"></path><g fill="#cccccc"><path d="M86,14.33333c-39.5815,0 -71.66667,32.08517 -71.66667,71.66667c0,39.5815 32.08517,71.66667 71.66667,71.66667c39.5815,0 71.66667,-32.08517 71.66667,-71.66667c0,-39.5815 -32.08517,-71.66667 -71.66667,-71.66667zM86,34.04167c12.86417,0 23.29167,10.4275 23.29167,23.29167c0,12.86417 -10.4275,23.29167 -23.29167,23.29167c-12.86417,0 -23.29167,-10.4275 -23.29167,-23.29167c0,-12.86417 10.4275,-23.29167 23.29167,-23.29167zM86,143.33333c-17.47233,0 -33.11717,-7.81883 -43.63067,-20.15267c-2.7305,-3.2035 -2.12133,-8.01233 1.23983,-10.54217c10.87183,-8.17717 30.6805,-12.30517 42.39083,-12.30517c11.71033,0 31.519,4.128 42.398,12.30517c3.36117,2.52983 3.97033,7.34583 1.23983,10.54217c-10.52067,12.33383 -26.1655,20.15267 -43.63783,20.15267z"></path></g></g></svg>