
<svg xmlns="http://www.w3.org/2000/svg" width="27.871" height="22.651" viewBox="0 0 27.871 22.651">
  <g id="Group_24" data-name="Group 24" transform="translate(-50.619 -172.253)">
    <path id="Path_61" data-name="Path 61" d="M75.637,177.9c.011.245.016.492.016.739,0,7.556-5.752,16.269-16.269,16.269a16.188,16.188,0,0,1-8.765-2.568,11.643,11.643,0,0,0,1.364.079,11.474,11.474,0,0,0,7.1-2.448A5.724,5.724,0,0,1,53.743,186a5.712,5.712,0,0,0,2.582-.1,5.721,5.721,0,0,1-4.588-5.606c0-.025,0-.049,0-.073a5.677,5.677,0,0,0,2.59.715,5.723,5.723,0,0,1-1.77-7.634,16.234,16.234,0,0,0,11.786,5.974,5.722,5.722,0,0,1,9.745-5.215,11.458,11.458,0,0,0,3.631-1.388,5.738,5.738,0,0,1-2.514,3.163,11.415,11.415,0,0,0,3.284-.9A11.638,11.638,0,0,1,75.637,177.9Z" transform="translate(0 0)" fill="#00acee"/>
  </g>
</svg>

